<?xml version="1.0" encoding="iso-8859-1"?>
<!-- Generator: Adobe Illustrator 19.0.0, SVG Export Plug-In . SVG Version: 6.00 Build 0)  -->
<svg version="1.1" id="Layer_1" xmlns="http://www.w3.org/2000/svg" xmlns:xlink="http://www.w3.org/1999/xlink" x="0px" y="0px"
	 viewBox="0 0 512 512" style="enable-background:new 0 0 512 512;" xml:space="preserve">
<path style="fill:#FFFFFF;" d="M256,504C119.033,504,8,392.967,8,256S119.033,8,256,8s248,111.034,248,248
	C503.846,392.902,392.902,503.846,256,504z"/>
<path style="fill:#E21B1B;" d="M256,16c132.548,0,240,107.452,240,240S388.548,496,256,496S16,388.548,16,256
	C16.15,123.513,123.513,16.15,256,16 M256,0C114.615,0,0,114.615,0,256s114.615,256,256,256s256-114.615,256-256S397.385,0,256,0z"
	/>
<polygon style="fill:#666666;" points="345.032,137.848 216.896,295.887 163.04,242.728 127.528,281.848 221.056,374.152 
	384.472,172.608 "/>
<g>
</g>
<g>
</g>
<g>
</g>
<g>
</g>
<g>
</g>
<g>
</g>
<g>
</g>
<g>
</g>
<g>
</g>
<g>
</g>
<g>
</g>
<g>
</g>
<g>
</g>
<g>
</g>
<g>
</g>
</svg>
